<?xml version="1.0" encoding="UTF-8" standalone="no"?>
<!-- Uploaded to: SVG Repo, www.svgrepo.com, Generator: SVG Repo Mixer Tools -->

<svg
   width="800px"
   height="800px"
   viewBox="0 0 1024 1024"
   version="1.1"
   id="svg6"
   sodipodi:docname="hack-the-box.svg"
   inkscape:version="1.2.2 (b0a8486541, 2022-12-01)"
   xmlns:inkscape="http://www.inkscape.org/namespaces/inkscape"
   xmlns:sodipodi="http://sodipodi.sourceforge.net/DTD/sodipodi-0.dtd"
   xmlns="http://www.w3.org/2000/svg"
   xmlns:svg="http://www.w3.org/2000/svg">
  <sodipodi:namedview
     id="namedview3080"
     pagecolor="#ffffff"
     bordercolor="#666666"
     borderopacity="1.0"
     inkscape:showpageshadow="2"
     inkscape:pageopacity="0.0"
     inkscape:pagecheckerboard="0"
     inkscape:deskcolor="#d1d1d1"
     showgrid="false"
     inkscape:zoom="0.5875"
     inkscape:cx="481.70213"
     inkscape:cy="465.53191"
     inkscape:window-width="1920"
     inkscape:window-height="1008"
     inkscape:window-x="0"
     inkscape:window-y="0"
     inkscape:window-maximized="1"
     inkscape:current-layer="svg6" />
  <defs
     id="defs10" />
  <path
     d="m 514.12993,6.6526996 c 5.73215,-1.581283 11.66193,-1.383623 17.59174,-0.790641 7.5111,0.790641 13.8362,5.5344814 20.359,9.0923694 131.44395,75.901465 262.88791,152.000592 394.52952,227.902072 12.65025,6.32512 21.94028,19.766 21.14962,34.39285 v 469.838 c 0.39533,13.24324 -7.90639,25.49816 -19.17301,31.62564 -134.2112,77.48275 -268.4224,155.16316 -402.6336,232.64591 -12.05726,7.9064 -28.66072,8.104 -40.91564,0.5929 C 373.1983,935.85274 241.55668,859.7536 109.71739,783.45683 c -6.52277,-3.95321 -13.638552,-7.11577 -18.580037,-13.04558 -6.12746,-6.72044 -9.290012,-15.81281 -8.894705,-24.90517 V 275.47041 C 81.847341,262.42484 90.149054,250.16992 101.21801,244.04246 233.84793,167.54801 366.28018,90.855893 498.71244,14.361434 503.85161,11.5942 508.59545,8.2339716 514.12993,6.6526996 Z m 7.70874,93.8885404 c -2.96489,0.39532 -5.53447,1.97659 -8.10407,3.36022 -91.31895,52.77524 -182.63791,105.35282 -273.7592,158.32573 -10.87131,6.12746 -10.87131,23.91686 0.39532,29.84666 91.51661,53.17056 183.23089,105.94582 274.94517,158.91872 5.73214,3.75553 13.63854,3.75553 19.37069,0 91.71427,-52.9729 183.42855,-105.74816 274.94517,-158.91872 11.06897,-5.9298 11.26664,-23.7192 0.19766,-29.84666 -91.51661,-52.97291 -183.2309,-105.94582 -274.94518,-158.91872 -3.75553,-2.56958 -8.49938,-3.557877 -13.04556,-2.76723 z M 178.10779,373.90513 c -6.9181,2.56958 -11.46428,10.08067 -11.06896,17.39409 v 316.05846 c -0.19766,7.11577 4.15086,13.63856 10.27832,16.80111 91.31895,52.77525 182.44025,105.55049 273.7592,158.12808 11.26663,6.9181 26.88179,-2.76725 26.09113,-15.81281 V 550.21793 c 0.19767,-6.52279 -3.16255,-12.84791 -8.69703,-16.20814 L 194.51358,375.68406 c -4.74385,-2.96489 -11.06897,-4.34852 -16.40579,-1.77893 z m 681.53197,-0.19767 c -8.10406,3.75554 -15.4175,8.69706 -23.3239,13.04558 -84.59852,48.82204 -169.19702,97.84173 -253.79554,146.66378 -6.32514,3.16256 -10.08066,9.883 -9.883,16.99876 v 316.05848 c -0.79065,13.04556 14.8245,22.73091 26.09113,16.01047 91.31896,-52.77525 182.63792,-105.55049 273.75921,-158.12808 6.12746,-2.96489 10.67365,-9.68532 10.27832,-16.60344 V 389.9156 c 0.19768,-11.46429 -12.65025,-20.55667 -23.12622,-16.20814 z"
     style="fill:#ffffff;stroke-width:1.97661"
     id="path4" />
</svg>
