<?xml version="1.0" encoding="UTF-8" standalone="no"?>
<svg
   viewBox="0 0 512 512"
   version="1.1"
   id="svg4"
   sodipodi:docname="hackwiki.svg"
   inkscape:version="1.2.2 (b0a8486541, 2022-12-01)"
   xmlns:inkscape="http://www.inkscape.org/namespaces/inkscape"
   xmlns:sodipodi="http://sodipodi.sourceforge.net/DTD/sodipodi-0.dtd"
   xmlns="http://www.w3.org/2000/svg"
   xmlns:svg="http://www.w3.org/2000/svg">
  <defs
     id="defs8" />
  <sodipodi:namedview
     id="namedview6"
     pagecolor="#ffffff"
     bordercolor="#666666"
     borderopacity="1.0"
     inkscape:showpageshadow="2"
     inkscape:pageopacity="0.0"
     inkscape:pagecheckerboard="0"
     inkscape:deskcolor="#d1d1d1"
     showgrid="false"
     inkscape:zoom="1.8359375"
     inkscape:cx="256"
     inkscape:cy="256.27234"
     inkscape:window-width="1920"
     inkscape:window-height="1008"
     inkscape:window-x="0"
     inkscape:window-y="0"
     inkscape:window-maximized="1"
     inkscape:current-layer="svg4" />
  <!--! Font Awesome Pro 6.4.2 by @fontawesome - https://fontawesome.com License - https://fontawesome.com/license (Commercial License) Copyright 2023 Fonticons, Inc. -->
  <path
     d="M184 0c30.9 0 56 25.1 56 56V456c0 30.9-25.1 56-56 56c-28.9 0-52.7-21.9-55.7-50.1c-5.2 1.4-10.7 2.1-16.3 2.1c-35.3 0-64-28.7-64-64c0-7.4 1.3-14.6 3.6-21.2C21.4 367.4 0 338.2 0 304c0-31.9 18.7-59.5 45.8-72.3C37.1 220.8 32 207 32 192c0-30.7 21.6-56.3 50.4-62.6C80.8 123.9 80 118 80 112c0-29.9 20.6-55.1 48.3-62.1C131.3 21.9 155.1 0 184 0zM328 0c28.9 0 52.6 21.9 55.7 49.9c27.8 7 48.3 32.1 48.3 62.1c0 6-.8 11.9-2.4 17.4c28.8 6.2 50.4 31.9 50.4 62.6c0 15-5.1 28.8-13.8 39.7C493.3 244.5 512 272.1 512 304c0 34.2-21.4 63.4-51.6 74.8c2.3 6.6 3.6 13.8 3.6 21.2c0 35.3-28.7 64-64 64c-5.6 0-11.1-.7-16.3-2.1c-3 28.2-26.8 50.1-55.7 50.1c-30.9 0-56-25.1-56-56V56c0-30.9 25.1-56 56-56z"
     id="path2" />
  <path
     style="fill:#ffffff;stroke-width:0.544681"
     d="m 181.37872,511.61745 c -14.07745,-0.8523 -25.9601,-6.07844 -36.07675,-15.867 -8.82254,-8.53642 -14.37584,-19.2672 -16.46644,-31.81854 -0.18711,-1.1234 -0.61639,-2.04255 -0.95393,-2.04255 -0.33755,0 -2.71623,0.39633 -5.28596,0.88073 -6.90393,1.30142 -19.17623,0.79985 -26.370801,-1.07777 -6.018615,-1.57072 -14.839601,-5.57887 -20.020148,-9.09691 -4.410597,-2.99518 -11.795521,-10.08077 -15.273864,-14.65476 -3.817913,-5.02052 -8.897544,-15.55378 -10.646471,-22.07682 -1.338405,-4.9919 -1.461451,-6.31114 -1.47327,-15.79574 -0.01192,-9.56293 0.09877,-10.76079 1.457366,-15.7715 0.808645,-2.98241 1.287775,-5.56657 1.064735,-5.74259 -0.22304,-0.17603 -1.998719,-1.04171 -3.945953,-1.92374 C 24.324912,366.18373 7.967055,346.04564 2.0905172,320.86566 0.48515143,313.98694 0.09755043,298.84139 1.3340624,291.30711 c 1.8137992,-11.05179 6.4950925,-22.6741 13.0145356,-32.31137 6.50653,-9.61817 19.710568,-21.28688 29.324964,-25.91513 l 2.550159,-1.22761 -2.360411,-3.31374 c -4.975199,-6.98458 -9.110279,-17.00588 -10.694516,-25.91798 -1.014266,-5.70574 -0.89019,-16.64487 0.255225,-22.50185 3.221857,-16.4747 13.126514,-31.45853 26.988642,-40.82859 5.110523,-3.45444 12.764955,-7.08469 17.96279,-8.51917 2.21458,-0.61117 4.105129,-1.18984 4.201216,-1.28592 0.09608,-0.0961 -0.183263,-1.51139 -0.620773,-3.14512 -2.059977,-7.69224 -2.056905,-19.69759 0.0073,-28.60465 5.040635,-21.750174 21.371126,-39.468011 42.853726,-46.49434 l 3.62545,-1.185778 0.63191,-3.649208 C 133.30577,21.97049 154.51284,2.6011767 179.1952,0.62909091 208.3055,-1.6967804 233.82788,18.043869 238.86009,46.777731 c 1.20732,6.893824 1.20732,411.550719 0,418.444539 -1.40229,8.00704 -4.50374,15.61734 -9.18556,22.53943 -2.95472,4.36857 -10.15607,11.47765 -14.52562,14.33952 -7.63112,4.99806 -17.24278,8.54082 -24.71719,9.11052 -2.1332,0.16259 -4.49132,0.35378 -5.24025,0.42486 -0.74894,0.0711 -2.46468,0.0625 -3.81277,-0.0192 z"
     id="path183" />
  <path
     style="fill:#ffffff;stroke-width:0.544681"
     d="m 322.92063,511.38238 c -18.49696,-1.46314 -36.00519,-13.41063 -44.59191,-30.42919 -2.43601,-4.82808 -4.23407,-10.27924 -5.18883,-15.73092 -1.20732,-6.89382 -1.20732,-411.550715 0,-418.444539 2.09325,-11.952436 7.348,-21.897783 16.08195,-30.437305 7.84069,-7.6661411 17.42916,-12.7826113 28.04212,-14.9634554 5.41578,-1.11288187 15.47494,-1.15526638 20.98285,-0.088412 22.67807,4.3926289 40.39751,22.2934694 44.63847,45.0954434 l 0.6745,3.626554 4.98607,1.726754 c 18.13441,6.280237 32.43943,20.205237 39.1829,38.141975 4.11465,10.944435 5.07956,26.139425 2.31536,36.461345 -0.43751,1.63373 -0.71686,3.04903 -0.62078,3.14512 0.0961,0.0961 1.98664,0.67475 4.20122,1.28592 5.01397,1.38374 12.99727,5.1244 17.91793,8.39565 13.90039,9.24096 24.3033,25.33538 27.2841,42.2114 0.92625,5.24409 0.92625,15.99847 0,21.24256 -1.56823,8.87865 -5.16437,17.67431 -10.37928,25.38622 l -2.61784,3.87133 2.52356,1.2147 c 5.96617,2.87176 13.53152,8.51228 19.71501,14.69899 9.55743,9.56241 15.41914,19.0132 19.57931,31.5676 3.18753,9.61919 3.99915,15.67093 3.64764,27.19806 -0.40711,13.35022 -2.45387,21.72158 -8.07411,33.02367 -7.68336,15.45093 -20.12785,27.77308 -36.14239,35.78709 -3.60295,1.80299 -6.6091,3.33574 -6.68033,3.40611 -0.0712,0.0704 0.53045,2.56158 1.33707,5.53602 1.35393,4.99266 1.46572,6.20303 1.45529,15.75702 -0.0104,9.53565 -0.12747,10.77697 -1.48963,15.79574 -1.77816,6.5515 -6.87718,17.13966 -10.63171,22.07682 -3.47834,4.57399 -10.86326,11.65958 -15.27386,14.65476 -5.14494,3.49385 -13.78858,7.41777 -19.93148,9.0482 -7.46043,1.98012 -19.0657,2.44942 -26.67795,1.0788 -2.88992,-0.52034 -5.36249,-0.838 -5.49458,-0.7059 -0.1321,0.13209 -0.49677,1.68944 -0.81039,3.46077 -2.01664,11.39007 -7.74817,22.112 -16.18288,30.27317 -12.07974,11.68799 -26.87018,16.96932 -43.7774,15.63193 z"
     id="path185" />
</svg>
